<mxfile host="www.draw.io" modified="2019-11-13T04:06:09.167Z" agent="Mozilla/5.0 (Macintosh; Intel Mac OS X 10_13_6) AppleWebKit/537.36 (KHTML, like Gecko) Chrome/78.0.3904.97 Safari/537.36" etag="QAAoPlVmhiV0c-xtTxoq" version="12.2.4" type="github" pages="1">
  <diagram id="SikVy1bVol5qIIZG4Op5" name="Page-1">
    <mxGraphModel dx="1355" dy="732" grid="1" gridSize="10" guides="1" tooltips="1" connect="1" arrows="1" fold="1" page="1" pageScale="1" pageWidth="850" pageHeight="1100" math="0" shadow="0">
      <root>
        <mxCell id="0"/>
        <mxCell id="1" parent="0"/>
        <mxCell id="g8O48SXkrSliV69VItdM-21" value="" style="edgeStyle=orthogonalEdgeStyle;rounded=0;orthogonalLoop=1;jettySize=auto;html=1;" parent="1" source="g8O48SXkrSliV69VItdM-3" target="g8O48SXkrSliV69VItdM-4" edge="1">
          <mxGeometry relative="1" as="geometry"/>
        </mxCell>
        <mxCell id="g8O48SXkrSliV69VItdM-3" value="Start" style="rounded=1;whiteSpace=wrap;html=1;arcSize=50;" parent="1" vertex="1">
          <mxGeometry x="20" y="20" width="120" height="60" as="geometry"/>
        </mxCell>
        <mxCell id="g8O48SXkrSliV69VItdM-22" value="" style="edgeStyle=orthogonalEdgeStyle;rounded=0;orthogonalLoop=1;jettySize=auto;html=1;" parent="1" source="g8O48SXkrSliV69VItdM-4" target="g8O48SXkrSliV69VItdM-8" edge="1">
          <mxGeometry relative="1" as="geometry"/>
        </mxCell>
        <mxCell id="g8O48SXkrSliV69VItdM-4" value="&lt;span style=&quot;text-align: left ; white-space: normal&quot;&gt;Mengajukan Kerjasama&lt;/span&gt;&lt;br style=&quot;text-align: left ; white-space: normal&quot;&gt;&lt;span style=&quot;text-align: left ; white-space: normal&quot;&gt;(Marketing)&lt;/span&gt;" style="shape=parallelogram;perimeter=parallelogramPerimeter;whiteSpace=wrap;html=1;" parent="1" vertex="1">
          <mxGeometry x="20" y="110" width="120" height="60" as="geometry"/>
        </mxCell>
        <mxCell id="g8O48SXkrSliV69VItdM-20" value="" style="edgeStyle=orthogonalEdgeStyle;rounded=0;orthogonalLoop=1;jettySize=auto;html=1;" parent="1" source="g8O48SXkrSliV69VItdM-8" target="g8O48SXkrSliV69VItdM-19" edge="1">
          <mxGeometry relative="1" as="geometry"/>
        </mxCell>
        <mxCell id="g8O48SXkrSliV69VItdM-25" value="" style="edgeStyle=orthogonalEdgeStyle;rounded=0;orthogonalLoop=1;jettySize=auto;html=1;" parent="1" source="g8O48SXkrSliV69VItdM-8" target="g8O48SXkrSliV69VItdM-24" edge="1">
          <mxGeometry relative="1" as="geometry"/>
        </mxCell>
        <mxCell id="g8O48SXkrSliV69VItdM-8" value="" style="rhombus;whiteSpace=wrap;html=1;" parent="1" vertex="1">
          <mxGeometry x="40" y="210" width="80" height="80" as="geometry"/>
        </mxCell>
        <mxCell id="g8O48SXkrSliV69VItdM-17" value="Ada Respon" style="text;html=1;strokeColor=none;fillColor=none;align=center;verticalAlign=middle;whiteSpace=wrap;rounded=0;" parent="1" vertex="1">
          <mxGeometry x="80" y="280" width="80" height="20" as="geometry"/>
        </mxCell>
        <mxCell id="g8O48SXkrSliV69VItdM-18" value="Tidak ada respon" style="text;html=1;strokeColor=none;fillColor=none;align=center;verticalAlign=middle;whiteSpace=wrap;rounded=0;" parent="1" vertex="1">
          <mxGeometry x="100" y="210" width="80" height="20" as="geometry"/>
        </mxCell>
        <mxCell id="g8O48SXkrSliV69VItdM-19" value="FollowUp" style="rounded=0;whiteSpace=wrap;html=1;" parent="1" vertex="1">
          <mxGeometry x="170" y="220" width="90" height="60" as="geometry"/>
        </mxCell>
        <mxCell id="g8O48SXkrSliV69VItdM-29" value="" style="edgeStyle=orthogonalEdgeStyle;rounded=0;orthogonalLoop=1;jettySize=auto;html=1;" parent="1" source="g8O48SXkrSliV69VItdM-24" target="g8O48SXkrSliV69VItdM-27" edge="1">
          <mxGeometry relative="1" as="geometry"/>
        </mxCell>
        <mxCell id="g8O48SXkrSliV69VItdM-24" value="FollowUp&lt;br&gt;(Perjanjian, Pendaftaran)" style="shape=parallelogram;perimeter=parallelogramPerimeter;whiteSpace=wrap;html=1;" parent="1" vertex="1">
          <mxGeometry x="20" y="320" width="120" height="60" as="geometry"/>
        </mxCell>
        <mxCell id="g8O48SXkrSliV69VItdM-26" value="&lt;p style=&quot;line-height: 90%&quot;&gt;&lt;/p&gt;&lt;h1&gt;&lt;font style=&quot;font-size: 14px&quot;&gt;Kesepakatan&lt;/font&gt;&lt;/h1&gt;&lt;p&gt;Pemotongan Gaji Karyawan, biaya admin, tanggal cutoff dll&lt;/p&gt;&lt;p&gt;&lt;/p&gt;" style="text;html=1;strokeColor=none;fillColor=none;spacing=5;spacingTop=-20;whiteSpace=wrap;overflow=hidden;rounded=0;" parent="1" vertex="1">
          <mxGeometry x="150" y="310" width="190" height="80" as="geometry"/>
        </mxCell>
        <mxCell id="g8O48SXkrSliV69VItdM-31" value="" style="edgeStyle=orthogonalEdgeStyle;rounded=0;orthogonalLoop=1;jettySize=auto;html=1;" parent="1" source="g8O48SXkrSliV69VItdM-27" target="g8O48SXkrSliV69VItdM-30" edge="1">
          <mxGeometry relative="1" as="geometry"/>
        </mxCell>
        <mxCell id="g8O48SXkrSliV69VItdM-27" value="Upload data anggota ke sistem&lt;br&gt;(PIN otomatis dikirim dinomor yg bersangkutan)" style="rounded=0;whiteSpace=wrap;html=1;" parent="1" vertex="1">
          <mxGeometry x="15" y="420" width="130" height="70" as="geometry"/>
        </mxCell>
        <mxCell id="g8O48SXkrSliV69VItdM-30" value="" style="ellipse;whiteSpace=wrap;html=1;aspect=fixed;" parent="1" vertex="1">
          <mxGeometry x="40" y="520" width="80" height="80" as="geometry"/>
        </mxCell>
        <mxCell id="9d7x-Vta_d24O9nCPlFE-1" value="&lt;br&gt;Upload data oleh Ben" style="text;strokeColor=none;fillColor=none;spacing=5;spacingTop=-21;overflow=hidden;rounded=0;align=left;horizontal=1;verticalAlign=top;fontColor=#000000;labelBackgroundColor=none;html=1;whiteSpace=wrap;" vertex="1" parent="1">
          <mxGeometry x="150" y="420" width="190" height="50" as="geometry"/>
        </mxCell>
      </root>
    </mxGraphModel>
  </diagram>
</mxfile>
